<svg xmlns="http://www.w3.org/2000/svg" width="1696" height="2528"><path fill="#af741c" d="m233 1051 2 1c1.2 4.092 1.125 8.148 1.14 12.387a2096 2096 0 0 0 .075 6.856c.396 27.915 5.165 54.626 10.79 81.897 1.325 6.433 2.559 12.857 3.495 19.36 3.087 21.206 7.998 42.229 12.37 63.2q2.072 9.954 4.02 19.933c2.433 12.426 5.261 24.723 8.288 37.017 1.5 6.113 2.971 12.232 4.447 18.35l.9 3.72a1418 1418 0 0 1 4.238 17.905q.663 2.897 1.315 5.797a102 102 0 0 0 2.313 7.726c1.989 5.831 3.533 11.774 5.109 17.727l2.664 9.987q.779 2.922 1.547 5.846c3.597 13.514 8.053 26.79 12.464 40.056q1.143 3.45 2.276 6.902c3.178 9.602 6.72 18.973 10.549 28.334a576 576 0 0 1 3.063 8.063l.741 1.98c1.214 3.255 2.4 6.517 3.544 9.797l1.277 3.66 1.102 3.219c1.23 3.17 2.656 6.116 4.202 9.138 1.909 3.82 3.595 7.74 5.321 11.643a429 429 0 0 0 9.804 20.567c2.453 4.843 4.661 9.766 6.821 14.745 6.044 13.835 13.239 27.04 21.078 39.934 3.047 5.05 3.047 5.05 3.047 7.254h2l1.066 2.203c5.916 12.047 12.853 23.408 19.934 34.797l1.746 2.879c3.617 5.873 7.644 11.106 12.074 16.387 2.709 3.398 4.941 6.982 7.207 10.683 2.926 4.524 6.163 8.81 9.418 13.1C440 1669.792 440 1669.792 440 1672h2v2h2c1.089 1.559 2.094 3.176 3.063 4.813 3.26 5.293 6.934 9.988 10.93 14.742 1.575 1.919 2.987 3.795 4.32 5.882 1.617 2.644 1.617 2.644 3.937 4.813L468 1706v2h2c1.629 1.8 1.629 1.8 3.563 4.313l2.164 2.769L478 1718c5.12 6.397 10.377 12.621 15.895 18.68a336 336 0 0 1 5.418 6.132c3.624 4.163 7.373 8.205 11.128 12.25a597 597 0 0 1 11.524 12.817c2.19 2.283 4.565 4.148 7.035 6.121a86 86 0 0 1 3.188 3.688c4.93 5.771 10.586 10.85 16.617 15.453L551 1795v2l1.813.875C555 1799 555 1799 558 1801v2l1.578.64c3.446 1.935 6.218 4.502 9.172 7.11 3.945 3.446 7.87 6.81 12.125 9.875L584 1823v2l1.559.668c3.427 1.87 6.419 4.269 9.504 6.645 7.025 5.35 14.227 10.39 21.552 15.321A169 169 0 0 1 628 1856a70 70 0 0 0 3.75 2.063c4.582 2.472 8.9 5.271 13.25 8.124 7.756 5.069 15.645 9.846 23.672 14.471 2.528 1.457 5.051 2.923 7.574 4.389 66.756 38.63 143.718 60.911 220.102 40.918 7.92-2.238 15.633-5.025 23.34-7.902l2.011-.749c9.43-3.535 18.356-7.69 27.301-12.314q2.149-1.066 4.305-2.117c6.8-3.348 13.516-6.808 20.133-10.508l1.895-1.054c4.244-2.403 8.28-5.047 12.322-7.773 3.95-2.608 8.024-5.008 12.095-7.423l5.309-3.172 2.573-1.537c8.446-5.051 16.746-10.279 24.913-15.77a445 445 0 0 1 11.267-7.333c14.594-9.232 27.683-20.137 40.747-31.372l1.784-1.533 3.57-3.074a375 375 0 0 1 10.462-8.647c5.515-4.469 10.653-9.306 15.792-14.196a307 307 0 0 1 12.162-10.975c1.831-1.581 1.831-1.581 3.671-4.016 1.693-2.116 3.168-3.547 5.223-5.262 6.051-5.239 11.641-10.953 17.288-16.62q2.915-2.92 5.839-5.83l3.709-3.714 1.764-1.758c2.95-2.884 2.95-2.884 5.177-6.316h2l.793-1.754c1.28-2.382 2.72-4.17 4.52-6.184l1.738-1.964c2.257-2.429 4.603-4.755 6.949-7.098 6.756-6.953 13.338-13.85 18.633-22.012 1.32-1.92 2.593-3.478 4.367-4.988h2l.672-1.613c1.787-3.212 4.165-5.827 6.578-8.574 3.813-4.418 7.293-8.848 10.434-13.778 1.758-2.718 3.701-5.27 5.668-7.84a228 228 0 0 0 3.734-5.14l2.164-3.055 2.016-2.875L1245 1646h2l.841-2.22c1.83-4.388 4.332-8.342 6.784-12.405l1.631-2.71c3.944-6.487 8.1-12.655 12.744-18.665q1.596-2.123 3.188-4.25l1.433-1.89c1.425-1.923 2.775-3.887 4.129-5.86l2.25-3h2v-2c5.936-1.304 11.833-1.11 17.875-1.062l3.242.013q3.942.018 7.883.049c-2.478 9.416-8.963 17.58-14.25 25.625-4.542 6.94-9.017 13.912-13.327 20.999-3.007 4.887-3.007 4.887-4.845 7.049-5.013 5.928-7.143 12.71-9.456 19.986a543 543 0 0 1-2.065 6.331c-5.616 17.12-9.723 34.454-13.12 52.135q-.98 5.067-1.972 10.133l-.487 2.49a404 404 0 0 1-3.576 16.162c-1.708 7.094-3.107 14.197-4.277 21.402l-.619 3.778c-6.735 41.686-11.953 83.719-14.006 125.91l-.128 2.586c-.74 15.204-1.075 30.38-1.06 45.601l.002 3.297c.096 64.106 5.158 129.227 21.63 191.394.632 2.413 1.25 4.829 1.865 7.246 5.943 23.328 12.25 46.314 20.691 68.876l.93 2.54c4.69 12.781 10.268 25.182 15.807 37.613a1060 1060 0 0 1 4.117 9.423c1.364 3.15 2.752 6.288 4.146 9.424l.859 1.946c6.302 14.175 14.071 27.477 21.785 40.919 1.546 2.705 3.078 5.42 4.606 8.135l1.411 2.443c2.536 4.53 4.115 8.256 4.339 13.557-1.638 4.64-3.695 7.567-8 10-3.886.847-7.298.868-10.89-.965-5.423-4.213-8.7-10.191-12.11-16.035l-1.937-3.262c-3.853-6.598-7.413-13.294-10.784-20.15-2.476-5.024-5.05-9.99-7.66-14.946-8.377-15.906-16.126-31.875-22.619-48.642l-2.687-6.562c-8.998-22.445-16.785-45.151-23.313-68.438l-1.034-3.655c-6.18-22.077-10.489-44.447-14.542-66.997q-.61-3.374-1.232-6.747c-1.861-10.205-3.377-20.436-4.692-30.726l-.323-2.523c-3.403-26.823-5.108-53.728-6.364-80.727l-.13-2.77c-.934-20.238-.621-40.3.13-60.543l.131-3.587c1.126-30.04 3.396-59.885 7.056-89.725l.49-4.058q.644-5.336 1.312-10.67.257-2.059.51-4.12c.234-1.912.479-3.823.723-5.734l.418-3.32c.562-3.181 1.504-6.045 2.547-9.098.285-1.498.525-3.006.71-4.52.11-.844.217-1.688.329-2.558l.336-2.735c3.26-24.982 7.424-49.778 13.926-74.14.848-3.176.848-3.176.699-7.047l-1.066 1.469c-3.741 5.078-7.72 9.84-11.934 14.531l-2.023 2.27a1137 1137 0 0 1-13.102 14.355c-3.79 4.092-7.527 8.218-11.184 12.43-7.745 8.908-15.907 17.247-24.312 25.527a104 104 0 0 0-5.691 6.293c-3.052 3.53-6.335 6.573-9.895 9.582-1.948 1.63-1.948 1.63-4.168 3.98C1146 1796 1146 1796 1144 1796l-.672 1.691c-1.747 3.038-3.959 4.918-6.578 7.246l-3.258 2.922-1.727 1.545c-2.4 2.17-4.75 4.387-7.104 6.605-5.204 4.892-10.462 9.582-16.106 13.968-3.068 2.43-6.025 4.974-8.993 7.523-4.797 4.103-9.734 7.885-14.886 11.54-2.801 2.052-5.453 4.23-8.113 6.46-5.012 4.139-10.22 7.771-15.681 11.288-3.038 1.956-6.065 3.928-9.094 5.898q-2.61 1.695-5.22 3.386c-5.16 3.346-10.282 6.74-15.38 10.178-5.515 3.71-11.14 7.19-16.859 10.574a279 279 0 0 0-10.454 6.488c-6.217 4.002-12.656 7.612-19.088 11.25-4.36 2.468-8.69 4.97-12.975 7.567-40.621 24.49-89.274 37.08-136.5 37.121l-2.177.002c-21.567-.032-42.195-3.176-63.135-8.252l-2.87-.686c-7.52-1.832-14.92-3.974-22.317-6.252l-3.366-1.013c-5.502-1.689-10.783-3.51-16-5.94-3.049-1.382-6.143-2.628-9.248-3.879l-3.713-1.505q-2.839-1.153-5.685-2.29c-7.772-3.104-15.057-6.572-22.223-10.919-3.083-1.813-6.284-3.13-9.578-4.516-3.69-1.965-7.312-4.045-10.937-6.125l-6.184-3.527-3.043-1.738a596 596 0 0 0-7.371-4.114c-7.956-4.374-15.537-9.096-23.043-14.203-3.711-2.515-7.547-4.79-11.414-7.055-2.507-1.546-4.717-3.393-7.008-5.238a132 132 0 0 0-6-3v-2l-2.219-.812c-11.135-4.755-21.92-14.686-30.992-22.641-2.31-1.998-4.673-3.927-7.039-5.86l-2.816-2.304a711 711 0 0 0-6.086-4.89l-3.035-2.43-2.793-2.215L543 1824v-2h-2c-1.625-1.375-1.625-1.375-3-3v-2l-1.746-.785c-11.149-6.01-20.42-18.285-29.234-27.18a723 723 0 0 0-4.895-4.879c-2.42-2.455-4.603-5.044-6.793-7.703-1.29-1.58-1.29-1.58-3.332-2.453v-2l-3-1v-2l-1.766-.75c-2.565-1.435-4.071-3.027-5.984-5.25l-1.86-2.125C478 1759 478 1759 478 1757h-2a207 207 0 0 1-4-5 281 281 0 0 0-5-5l-1-1c1.029 5.95 2.156 11.838 3.598 17.701 6.123 25.164 9.859 51.015 13.214 76.674l.3 2.294c2.265 17.45 4.059 34.923 5.247 52.48l.171 2.497c.424 6.242.828 12.485 1.22 18.729l.175 2.789c1.903 30.518 2.427 60.44.269 90.975a914 914 0 0 0-.682 11.467C486.652 2073.237 478.96 2125.158 465 2175l-.796 2.88a1000 1000 0 0 1-4.513 15.766 906 906 0 0 0-2 6.932c-3.295 11.504-7.132 22.717-11.664 33.8-1.238 3.16-2.348 6.356-3.464 9.56a163 163 0 0 1-6.247 15.148c-1.557 3.447-2.938 6.955-4.316 10.477-2.363 5.995-5.032 11.72-8 17.437q-1.272 2.56-2.54 5.124c-30.236 61.034-30.236 61.034-40.46 66.876-4.656.918-8.074.387-12.437-1.437C365 2354 364.016 2351.017 364 2346c1.742-8.961 8.195-17.316 12.834-25.042 5.58-9.37 10.369-19.174 15.166-28.958l1.5-3.053c6.562-13.395 12.987-26.8 18.567-40.636.997-2.468 2.008-4.93 3.019-7.393 3.447-8.444 6.731-16.894 9.505-25.588 1.01-3.14 2.07-6.262 3.15-9.379 5.246-15.225 9.535-30.585 13.447-46.201l.925-3.67c4.038-16.048 7.981-32.026 10.355-48.418q.594-4.091 1.232-8.176c6.868-44.068 9.934-88.063 11.784-132.584l.16-3.804c2.644-66.104-7.222-138.742-22.066-203.137-1.69-7.359-3.198-14.75-4.703-22.149q-1.106-5.346-2.224-10.691-.602-2.883-1.189-5.769c-1.928-9.393-4.695-16.62-10.462-24.352l-3.285-4.512c-3.543-4.85-7.126-9.67-10.715-14.488-10.276-13.84-19.515-28.298-28.674-42.891-2.278-3.623-4.582-7.229-6.885-10.836a535 535 0 0 1-3.941-6.335c-1.806-2.925-3.774-5.672-5.812-8.438-3.34-4.724-5.904-9.707-8.417-14.897-3.23-6.64-6.789-13.08-10.415-19.513a151 151 0 0 1-6.86-13.886c-1.338-2.961-2.885-5.786-4.447-8.635-5.722-10.443-10.32-21.202-14.654-32.283L320 1518l-.94-2.42c-1.182-2.878-2.494-5.674-3.826-8.486-3.286-7.09-6.184-14.3-8.984-21.594l-.77-1.997c-6.373-16.536-12.41-33.24-17.511-50.214-1.167-3.85-2.435-7.575-3.98-11.289-2.42-5.862-4.1-11.897-5.801-18l-1.04-3.692A3024 3024 0 0 1 274 1389l-.968-3.496c-5.092-18.469-9.721-36.99-13.584-55.755-1.768-8.48-4.055-16.795-6.4-25.134-2.418-8.78-4.326-17.579-5.998-26.528-.74-3.961-1.5-7.919-2.26-11.876-.153-.79-.304-1.581-.46-2.396-1.347-6.98-2.816-13.932-4.33-20.878q-1.113-5.163-2.223-10.327-.8-3.713-1.605-7.423c-4.528-20.956-7.9-41.977-10.775-63.223-1.317-9.693-2.704-19.298-4.788-28.86-2.122-10.817-3.885-24.805.391-35.104.257-1.971.442-3.953.563-5.937.283-4.088.75-8.023 1.437-12.063.226-2.804.436-5.607.621-8.414.384-2.623 1.104-4.288 2.379-6.586l1-3a247 247 0 0 1 2.5-5.125l1.344-2.695C232 1052 232 1052 233 1051"/><path fill="#af741c" d="m576.875 630.875 3.615.012c16.804.106 32.94 1.297 49.51 4.113l2.273.368c7.376 1.194 14.354 2.566 21.227 5.585 6.144 2.573 12.645 4.666 19.25 5.547 3.646.561 6.443 1.775 9.746 3.367 2.09.946 4.155 1.75 6.309 2.531 4.108 1.521 7.983 3.362 11.883 5.352l2.094 1.065q2.111 1.077 4.218 2.16c1.816.93 3.642 1.842 5.469 2.752 7.244 3.71 13.528 8.064 19.851 13.136 2.675 2.195 2.675 2.195 5.68 4.137v2l1.64.656c3.178 1.81 5.569 4.256 8.11 6.844l1.61 1.629c4.58 4.693 8.674 9.65 12.64 14.871l2.102 2.55C776.028 724.45 792.589 751.229 792 771h2c2.581 7.292 4.631 14.395 6 22q.714 3.532 1.438 7.063c2.747 13.837 5.051 27.594 6.497 41.63.253 2.439.52 4.875.79 7.31 1.037 9.712 1.513 19.229 1.275 28.997l2 1 .148 3.996c.39 9.59.898 19.079 2.28 28.584.681 4.963.681 4.963.062 7.557-.701 4.096-.306 8.009-.033 12.14.682 12.114.513 24.162.23 36.285l-.072 3.36c-.639 29.237-2.359 58.28-5.105 87.39-.36 3.877-.662 7.751-.9 11.637-.86 13.53-2.865 26.807-5.048 40.176l-.458 2.816c-4.641 28.307-4.641 28.307-8.428 38.95-.704 2.197-1.143 4.339-1.551 6.609-2.218 11.84-6.374 23.395-9.988 34.871A886 886 0 0 0 779 1207h-2l-.008 1.625c-.398 8.08-3.219 14.972-6.202 22.384a306 306 0 0 0-2.423 6.358C767 1241 767 1241 766 1243h-2l-.25 2.938c-.898 6.188-3.738 11.622-7.125 16.812-2.81 4.345-4.884 8.944-7.004 13.656a437 437 0 0 1-3.523 7.625l-.964 2.035q-.927 1.956-1.862 3.909c-1.4 2.97-2.65 5.79-3.272 9.025h-2l-.312 2.813c-.75 3.475-1.3 3.835-3.688 6.187-8.257 16.018-13.468 38.633-8.875 56.375 2.205 6.2 5.333 11.761 10.688 15.688 7.242 2.13 12.401 1.151 19.187-2.063 3.303-1.108 6.646-2.06 10-3l1.996-.598c15.008-4.212 29.04-1.963 43.004 4.598 2.938 1.695 5.763 3.487 8.578 5.379a70 70 0 0 0 6.047 3.621c2.83 1.677 5.244 3.403 7.813 5.438 11.635 9.194 21.407 13.032 36.562 11.562 9.237-2.364 15.887-7.405 21.813-14.687q1.58-1.883 3.167-3.758l1.557-1.841C904.283 1374.47 912.56 1368.88 926 1367c13.38-.886 23.799.451 35 8q2.461 1.17 4.938 2.313c5.114 2.821 7.785 7.42 10.062 12.687v3c-6.625 3-6.625 3-10 3l-1 3c-7.965.77-14.046-1.069-21.402-3.866-6.328-2.33-12.372-3.507-18.848-.759l-1.996.844L921 1396l-2.312.875c-2.388 1.592-3.253 3.646-4.688 6.125a676 676 0 0 1-3.562 5.813l-1.817 2.957L907 1414h-2l-1 3c-6.415 5.675-13.987 9.188-22 12l-2.237.793c-6.147 2.034-11.681 2.687-18.138 2.582l-2.792-.035c-13.531-.324-23.303-4.709-34.833-11.34v-2l-2.113-.207c-3.711-1.02-6.164-3.079-9.074-5.48-11.894-9.459-22.03-14.539-37.637-13.569-7.15.841-14.064 3.642-20.723 6.256-7.48 2.84-15.488 3.277-23.14.813L728 1405l-2.324-.996c-10.298-4.558-16.552-11.604-21.29-21.719-1.54-2.54-2.642-3.261-5.386-4.285l.625-2.625c.425-3.824-.311-5.799-1.625-9.375-3.343-18.883-.4-37.073 6.695-54.672.969-2.47 1.77-4.743 2.305-7.328h2l.297-1.652c1.856-9.36 6.159-17.317 10.428-25.78 3.076-6.115 6.006-12.295 8.912-18.493a417 417 0 0 1 6.536-13.287c3.694-7.192 6.724-14.445 9.464-22.05a213 213 0 0 1 3.863-9.8l1.227-2.942a288 288 0 0 1 2.671-6.086c5.139-11.867 7.89-24.334 10.828-36.897.787-3.063 1.745-6.023 2.774-9.013 7.502-23.612 10.448-48.474 13.725-72.959q.438-3.245.885-6.489c2.5-18.284 4.69-36.58 6.027-54.99l.195-2.674c1.49-20.953 1.556-41.868 1.432-62.863-.019-3.915-.023-7.83-.026-11.746q-.01-7.167-.035-14.334l-.006-2.632c-.044-15.768-.225-31.654-2.248-47.313l-.299-2.441c-.312-2.521-.636-5.04-.962-7.559l-.336-2.645c-1.403-11.028-2.995-21.939-5.391-32.8-1.192-5.44-2.024-10.932-2.899-16.43-3.046-18.664-7.25-36.464-14.062-54.125l-.917-2.425c-6.291-16.468-14.818-33.9-27.802-46.204C732 716 732 716 732 714h-2v-2l-1.68-.672c-3.049-1.745-5.045-4.017-7.445-6.578-4.112-4.252-8.127-7.494-13.348-10.355-2.755-1.521-5.341-3.22-7.965-4.957-7.316-4.675-14.944-8.034-23.21-10.633-2.706-.926-5.291-2.042-7.914-3.18-10.531-4.422-21.27-7.545-32.438-9.875l-2.295-.494c-12.835-2.527-26.217-2.414-39.261-2.759q-3.41-.091-6.817-.19c-7.877-.221-15.746-.362-23.627-.307-4 0-4 0-7-1l-1 1c-2.267.193-4.54.326-6.812.438-3.064.178-6.126.37-9.188.562l-2.313.143c-17.124 1.139-34.998 4.041-50.687 11.232-3.247 1.404-6.548 2.428-9.937 3.438-12.832 3.894-24.587 8.712-36.302 15.223-2.763 1.512-5.57 2.928-8.386 4.339l-2.79 1.398c-2.494 1.184-5.01 2.232-7.585 3.227v2a134 134 0 0 1-7.375 4.625l-2.117 1.273C407.27 713 407.27 713 405 713v2c-1.898 1.508-1.898 1.508-4.375 3.125l-2.46 1.633C396 721 396 721 394 721l-.613 1.664c-1.932 3.255-4.675 5.356-7.574 7.711l-1.775 1.473Q381.524 733.93 379 736c-4.551 3.639-4.551 3.639-8.441 7.934-4.008 5.313-8.978 9.585-15.559 11.066l-1-2-2.187.438c-3.212-.5-3.69-.947-5.688-3.375-2.39-3.74-2.558-6.485-1.766-10.793 1.708-6.05 3.92-10.066 9.032-13.887 1.902-1.635 3.2-3.414 4.671-5.446 3.21-4.28 6.836-7.877 10.75-11.5l1.745-1.627C374.744 703 374.744 703 377 703l1-3h3v-2c2.082-1.727 2.082-1.727 4.813-3.625l2.707-1.914C391 691 391 691 394 691v-2a135 135 0 0 1 7.25-5.25l2.199-1.502c5.148-3.457 10.396-6.35 16.016-8.982 2.277-1.137 4.151-2.343 6.16-3.891 4.066-3.077 8.636-4.596 13.375-6.375 8.024-3.209 8.024-3.209 15.813-6.937 29.982-15.204 64.637-20.865 97.751-23.826 2.264-.22 4.512-.5 6.768-.788 5.838-.658 11.675-.599 17.543-.574"/><path fill="#7a5113" d="M937.933 1563.932c2.95 1.524 6.013 2.767 9.067 4.068q1.817.93 3.625 1.875c4.64 2.36 9.48 4.139 14.348 5.973 3.386 1.289 6.697 2.725 10.027 4.152q3.09 1.195 6.187 2.375c5.372 2.051 10.684 4.214 15.985 6.441 10.748 4.499 21.606 8.756 32.64 12.497 8.088 2.856 15.635 6.653 23.188 10.687l2.922 1.523c2.078 1.477 2.078 1.477 2.765 4.977-.661 9.543-8.145 17.73-13.832 24.969-2.001 2.46-2.001 2.46-2.855 5.531l-5 5c-2.875 3.568-5.523 7.23-7.938 11.125-2.223 3.1-4.609 5.216-7.574 7.578-1.622 1.248-1.622 1.248-2.488 3.297h-2l-.691 1.68c-1.68 2.98-3.81 5.048-6.247 7.445l-2.652 2.633C1005 1690 1005 1690 1002 1692a791 791 0 0 0-3 5c-1.962 2.223-3.687 3.817-6.25 5.313-2.406 1.476-4.229 2.935-6.313 4.812-3.479 3.107-7.094 5.999-10.812 8.813l-3.086 2.34C970 1720 970 1720 968 1720l-.59 1.723c-1.987 3.209-4.822 4.789-7.973 6.715l-1.767 1.119c-7.769 4.867-15.89 9.145-23.983 13.443l-2.318 1.25c-10.524 5.58-21.65 9.69-32.807 13.813l-3.408 1.275c-11.336 4.2-22.337 8.007-34.404 9.287l-3.19.352c-3.518.37-7.038.703-10.56 1.023l-3.866.353c-33.35 2.94-66.973 1.582-99.134-8.353v-2l-1.879-.227c-6.716-.997-12.55-2.935-18.729-5.652-4.21-1.812-7.88-2.652-12.392-3.121v-2l-2.465-1.18c-14.2-6.932-27.606-14.354-39.535-24.82a836 836 0 0 0-3.207-2.691 805 805 0 0 1-15.606-13.371l-2.457-2.16C646 1703 646 1703 646 1701h-2c-3.748-5.486-5.654-9.383-4.59-16.055C640 1683 640 1683 642 1680c6.283-.639 11.402.143 16.535 4.219a326 326 0 0 1 3.309 2.969c3.799 3.193 7.965 5.884 12.07 8.664a102 102 0 0 1 5.55 4.125c16.775 13.388 35.749 22.115 55.536 30.023l4.012 1.64c36.335 14.552 76.457 15.86 114.488 8.86l3.525-.647c4.904-.937 9.357-1.933 13.975-3.853q2.804-.636 5.625-1.187c12.923-2.894 25.497-8.015 37.375-13.813l3-1.437c7.724-4.023 15.21-8.238 22.516-12.985 1.944-1.235 3.954-2.365 5.984-3.453 4.345-2.417 8.018-5.73 11.816-8.91a116 116 0 0 1 6.559-5.027c6.965-5.13 13.414-11.31 19.39-17.555C985 1670 985 1670 987 1670l.816-1.852C989 1666 989 1666 991.937 1663.625c5.065-4.124 8.768-9.42 12.708-14.578C1007 1646 1007 1646 1009 1644c-3.89.507-7.705 1.131-11.543 1.945-5.604 1.13-11.22 1.88-16.895 2.555l-2.79.355c-21.071 2.537-42.348 3.477-63.533 4.523-3.738.184-7.475.375-11.212.565Q892.015 1654.5 881 1655l-3.422.156c-18.11.806-36.2 1.05-54.328 1.032l-2.077-.002c-119.981-.09-119.981-.09-140.173-10.186l-1 2v-2l-3.586-.332c-22.949-2.25-22.949-2.25-27.414-7.668-.563-2.437-.563-2.437 0-5 4.967-4.299 8.722-4.528 14.953-4.277l2.654.06c2.882.07 5.762.174 8.643.28q3.043.09 6.085.177c15.96.502 31.863 1.582 47.783 2.795 62.818 4.788 125.016 3.267 187.712-2.33 8.764-.776 17.537-1.378 26.315-1.967 21.061-1.423 42.04-3.104 62.855-6.738l-2.168-.779-9.832-3.533-3.41-1.225A1161 1161 0 0 1 973 1609l-2.285-.844c-4.3-1.587-8.512-3.322-12.715-5.156l-3.438-1.437a130 130 0 0 1-7.296-3.461c-3.95-1.986-7.971-3.663-12.079-5.29a234 234 0 0 1-16.3-7.262c-18.446-9.079-38.741-15.42-59.203-9.534-4.199 1.54-7.927 3.575-11.684 5.984l-3.063 1.938c-2.792 1.897-2.792 1.897-4.695 3.539-5.408 4.444-10.47 6.02-17.242 7.523q-2 .593-4 1.188c-17.587 4.28-33.43-4.817-48.598-12.512-17.019-8.383-37.123-11.563-55.652-5.676-6.942 2.81-13.546 6.357-20.056 10.046-2.417 1.36-4.87 2.652-7.319 3.954-5.152 2.816-10.127 5.89-15.113 8.988-8.592 5.3-17.375 10.231-26.262 15.012q-1.836 1.005-3.672 2.012c-6.13 3.34-12.198 6.491-18.754 8.93-3.22 1.324-6.241 2.94-9.324 4.558-9.338 4.79-19.674 9.33-30.25 6.5-4.5-1.5-4.5-1.5-6-3-.241-4.26-.369-7.39 2-11 1.873-1.17 1.873-1.17 4.148-2.113l2.531-1.084 2.696-1.115c7.01-3.017 13.619-6.165 20.117-10.18 2.77-1.666 5.609-3.08 8.508-4.508 7.709-4.017 15.338-8.103 22.754-12.645 2.159-1.302 4.344-2.525 6.558-3.73 4.999-2.744 9.83-5.751 14.672-8.758L665 1578l2.687-1.68C670 1575 670 1575 673.25 1574l2.75-1 1-3 6-1 1-3a88 88 0 0 1 7-4l2.08-1.083c4.87-2.49 9.652-4.434 14.92-5.917 1.473-.49 1.473-.49 2.977-.988 25.459-8.355 47.335-4.84 70.94 6.778 2.71 1.374 5.4 2.784 8.083 4.21 7.92 4.162 14.982 6.245 24 5 5.05-1.922 9.8-4.32 14.102-7.605 1.933-1.42 3.57-2.142 5.835-2.895 3.332-1.113 6.064-2.676 9.063-4.5 31.402-16.383 64.95-6.771 94.933 8.932"/><path fill="#af741c" d="m1261 770 2.082.826q3.338 1.327 6.668 2.674l2.075.825c5.3 2.165 10.225 4.804 15.175 7.675l2.44 1.411a963 963 0 0 1 7.56 4.464l2.54 1.488c8.087 4.82 15.324 10.417 22.21 16.824 2.636 2.447 5.227 4.795 8.078 6.989L1332 815v2l1.781.727c2.66 1.526 3.915 3.18 5.719 5.648 1.757 2.389 3.446 4.571 5.555 6.66 7.5 7.576 11.887 19.257 16.75 28.66a1107 1107 0 0 0 3.218 6.153 148 148 0 0 1 8.91 21.05c.847 2.463 1.8 4.741 2.88 7.102 2.174 5.626 1.59 12.082 1.187 18l-1 2h-2l-.687 2.313c-1.977 4.046-4.22 4.956-8.372 6.406-5.472 1.222-8.817.136-13.445-2.728-2.896-1.92-5.703-3.922-8.496-5.991l-2.414-1.672L1340 910v-2l-3-1v-2l-2.25-.812c-2.64-1.14-4.606-2.282-6.75-4.188v-2l-1.75-.75c-2.25-1.25-2.25-1.25-3.977-3.023-2.749-2.693-5.762-4.89-8.898-7.102l-1.902-1.344c-10.212-7.154-21.112-12.865-32.172-18.582a423 423 0 0 1-6.113-3.258c-8.235-4.35-16.143-6.901-25.188-8.941l1.242 2.273 1.633 3.102 1.617 3.023c5.543 13.239 6.046 31.792 1.446 45.352-2.717 6.317-5.887 12.678-9.938 18.25h-2l-.707 1.727c-2.144 3.77-5.476 6.209-8.719 9.03a109 109 0 0 0-4.367 3.985c-11.796 11.243-30.366 12.636-45.852 12.473-18.489-1.184-37.022-9.727-49.382-23.469-5.098-6.161-8.708-12.461-11.973-19.746l-1.223-2.562c-2.863-6.404-3.599-12.462-3.777-19.438l-.191-3.832c.018-4.613 1.369-8.46 3.004-12.73l.79-2.17c1.908-5.177 3.928-10.33 6.397-15.268h2l1-4c-14.118 3.207-26.344 7.868-39 15l-5.312 2.813c-4.453 2.434-8.776 5.036-13.063 7.75l-1.767 1.102c-2.86 1.839-5.195 3.679-7.585 6.112C1060 886 1060 886 1057 886v2c-1.68 1.402-1.68 1.402-3.875 2.938-2.8 1.961-4.186 3.153-6.125 6.062h-2l-.687 1.813c-2.236 3.726-5.241 4.874-9.313 6.062-3.647.152-5.143-.67-8-2.875-1.564-3.129-1.28-5.527-1-9 2.737-7.937 8.716-13.503 14.457-19.41a447 447 0 0 0 4.2-4.403c5.34-5.543 10.875-10.03 17.343-14.187l2.652-1.738A480 480 0 0 1 1073 848l2.73-1.715c14.406-8.762 31.385-16.608 48.01-19.791 2.28-.498 4.436-1.162 6.655-1.88 33.839-10.211 73.258-9.732 107.605-2.614l2.764.535c19.209 3.762 37.725 10.774 55.236 19.465l2.504 1.195c14.597 7.076 27.808 15.722 40.496 25.805-1.903-6.045-4.574-10.54-8.379-15.605-1.623-2.398-2.65-4.676-3.621-7.395h-2c-1.438-1.57-2.8-3.209-4.125-4.875l-2.422-3.02a2426 2426 0 0 1-4.719-5.992l-2.109-2.676-1.898-2.44c-1.754-2.207-1.754-2.207-4.727-3.997v-2l-2-.625c-3.487-1.598-6.22-3.681-9.23-6.035-1.736-1.4-1.736-1.4-3.77-2.34v-2c-.704-.095-1.408-.19-2.133-.29-3.38-.837-5.78-2.261-8.742-4.085-4.27-2.62-8.514-4.675-13.125-6.625a1248 1248 0 0 1-5.687-3.125c-43.78-22.664-93.14-20.58-139.188-7.312l-1.992.573c-7.08 2.067-13.672 4.295-20.133 7.864l-1.952 1.061c-2.642 1.462-4.903 2.794-7.048 4.939h-2c-8.602 3.804-16.507 8.291-24 14l-2.437 1.855A604 604 0 0 0 1055 824l-2.812 2.188c-2.216 1.778-2.216 1.778-4.188 3.812a60.5 60.5 0 0 1-7 6h-2v2c-4.47 4-4.47 4-7 4v2h-2l-.82 1.773c-1.171 2.21-2.438 3.95-4.055 5.852-.492.59-.985 1.18-1.492 1.79-2.925 2.84-5.645 3.874-9.696 3.898C1010 857 1010 857 1008 856c-1.943-3.886-1.653-7.866-.414-11.914 2.873-6.405 7.6-12.04 12.414-17.086l3-1v-2c5.812-5.621 12.189-9.843 19.344-13.523 4.488-2.495 10.299-5.763 12.656-10.477h2l2-4h4l.438-2.75c2.015-4.192 3.808-4.573 7.992-6.187 4.47-1.848 8.466-4.525 12.57-7.063 10.664-6.439 21.815-10.898 33.813-14.187l3.728-1.038c8.772-2.402 17.435-4.552 26.459-5.775l2.116-.303c37.251-5.14 75.905-2.743 110.884 11.303m-106 86-2.5 2.313c-1.721 1.56-1.721 1.56-1.5 3.687h-2c-1.53 2.076-1.53 2.076-3 4.688l-1.562 2.636c-4.162 7.746-5.379 15.468-3.805 24.18 3.19 10.576 10.308 20.112 19.957 25.726 2.68 1.39 5.336 2.743 8.098 3.957l2.199.981c9.858 3.881 22.301 2.693 32.082-.793 10.878-4.934 17.963-12.574 22.965-23.395.644-2.04.897-3.843 1.066-5.98l.277-3.473c.348-8.47-.454-14.497-5.277-21.527l-1.352-2.059c-4.427-5.948-9.725-7.037-16.683-8.64-12.682-2.97-12.682-2.97-16.207-8.114-.989-1.69-1.882-3.435-2.758-5.187-13.285-.74-20.504 1.804-30 11M543.813 771.688l2.392-.008c25.243-.01 49.528 3.892 73.393 12.172a155 155 0 0 0 7.12 2.207c3.592 1.03 6.862 2.441 10.282 3.941q1.903.697 3.813 1.375c19.342 7.18 38.594 19.393 54.472 32.414a338 338 0 0 0 6.274 4.984l1.88 1.462q1.824 1.414 3.652 2.82c3.56 2.772 6.761 5.7 9.909 8.945l1.809 1.668C725.9 850.284 731.794 859.184 733 869c-1.43 4.824-3.917 7.173-8 10-3.23 1.615-6.498 1.453-10 1-4.45-1.572-7.354-3.03-10-7-2.552-1.205-2.552-1.205-5-2v-2h-2a131 131 0 0 1-5-5 805 805 0 0 0-3.687-3.75l-1.762-1.797c-1.506-1.55-1.506-1.55-3.551-2.453v-2l-4-2v-2l-1.788-.848c-2.04-1.062-3.77-2.199-5.603-3.578-.623-.464-1.246-.93-1.889-1.408l-1.97-1.479c-5.889-4.37-11.825-8.37-18.145-12.101-2.606-1.586-5.13-3.269-7.668-4.961-8.888-5.914-8.888-5.914-18.937-8.625l1.207 2.246c9.135 18.159 9.68 38.028 4.73 57.629-3.879 11.716-10.63 23.064-18.937 32.125l-1.738 1.91c-4.305 4.503-9.083 8.62-14.262 12.09h-2v2h-2v2c-24.31 13.39-49.954 14.758-76.238 7.305-7.05-2.098-14-4.581-19.762-9.305v-2l-1.562-.687c-3.333-1.795-6.585-3.813-9.438-6.313v-2h-2c-14.931-14.123-23.775-35.502-24.47-55.843-.2-18.608 5.998-32.518 15.47-48.157l-1.538.708a247 247 0 0 1-13.353 5.589C446.707 820.682 436.045 824.955 426 832q-2.466 1.66-4.937 3.313l-2.125 1.433C412.364 841 412.364 841 409 841l-1 3a108 108 0 0 1-5.562 3.688c-8.288 5.417-14.928 12.439-21.744 19.56a206 206 0 0 1-4.518 4.498c-1.907 1.976-3.214 3.659-4.488 6.067L370 881h-2l-.875 1.875C366 885 366 885 364 887c-6.93.782-6.93.782-10.562-1.875-2.197-4.774-1.992-8.126-.438-13.125 3.877-8.172 9.21-16.08 15-23h2l.688-1.687c1.693-2.985 3.828-4.94 6.312-7.313q1.689-1.717 3.375-3.437C389.958 827 389.958 827 393 827v-2c1.78-1.483 3.627-2.887 5.5-4.25l3.336-2.441L405 816a1502 1502 0 0 0 4.125-3.187c8.627-6.435 18.22-11.146 27.875-15.813l2.566-1.273c11.995-5.738 24.84-9.907 37.455-14.066a228 228 0 0 0 5.026-1.759c6.352-2.267 12.443-3.605 19.14-4.41 2.723-.304 2.723-.304 4.48-1.485 3.401-1.468 6.82-1.47 10.47-1.612l2.41-.112a625 625 0 0 1 25.265-.596M512.5 803.813l-2.032 1.003c-4.195 2.2-7.216 4.682-10.468 8.184l-1.738 1.422c-8.696 7.336-14.569 22.103-15.598 33.2-.15 14.642 2.096 27.524 11.336 39.378l1.96 2.578c7.976 9.665 19.08 16.715 31.04 20.422l2.156.676c14.08 3.75 29.472 1.256 42.012-5.932 8.56-5.168 15.454-11 21.832-18.744l1.379-1.578c6.004-7.453 9.17-17.95 9.621-27.422l.188-3.02c.284-7.65-.73-13.182-4.188-19.98l-1.32-2.816c-3.236-6.497-6.8-10.94-12.68-15.184l-2.078-1.5c-3.024-2.031-5.149-3.386-8.809-3.926-3.577-.66-5.763-1.908-8.8-3.886l-2.825-1.801C561 803 561 803 559.508 800.817c-1.4-2.053-1.4-2.053-4.004-2.426l-2.942-.141-3.25-.16L546 798l-3-.121c-11.03-.25-20.578 1.03-30.5 5.933"/><path fill="#6f4a12" d="M534 796c-3.736 2.026-7.7 3.378-11.687 4.813-5.53 2.019-10.675 4.212-15.711 7.304C505 809 505 809 503 809l-.805 1.832c-1.245 2.259-2.34 3.248-4.32 4.856-3.877 3.73-5.945 7.998-8.187 12.812l-1.022 2.194c-6.692 14.887-6.177 30.143-.666 45.306a79 79 0 0 0 5.512 8.863C495 887 495 887 496 890l1.813.875C500 892 500 892 501.753 894.316c8.466 10.115 24.273 15.794 37.138 16.942 17.767.656 32.734-5.843 46.109-17.258 2.48-2.547 4.736-5.261 7-8l1.383-1.582c6-7.454 9.166-17.948 9.617-27.418l.188-3.02c.284-7.64-.716-13.196-4.188-19.98l-1.46-2.957c-2.434-4.712-4.215-7.92-8.54-11.043v-2l-2.125-.75C584 816 584 816 581.063 813.938c-2.869-2.107-2.869-2.107-5.899-2.348-3.621-.675-5.79-1.942-8.851-3.965l-2.825-1.836c-3.903-2.806-3.903-2.806-5.488-4.789v-3c-1.578.03-1.578.03-3.187.063-3.14-.052-5.782-.328-8.813-1.063v-1c17.431.62 34.134 2.062 51.053 6.503 1.758.449 3.53.84 5.302 1.224 9.2 2.356 13.92 8.106 19.645 15.273l2-2c10.115 18.823 11.151 39.231 5.938 59.875-3.88 11.716-10.63 23.064-18.938 32.125l-1.738 1.91c-4.305 4.503-9.083 8.62-14.262 12.09h-2v2h-2v2c-24.31 13.39-49.954 14.758-76.238 7.305-7.05-2.098-14-4.581-19.762-9.305v-2l-1.562-.687c-3.333-1.795-6.585-3.813-9.438-6.313v-2h-2c-14.931-14.123-23.775-35.502-24.47-55.843-.143-13.317 2.36-24.6 8.408-36.532l.98-1.968c.984-1.805.984-1.805 3.082-4.657 2.629-.664 2.629-.664 5-1 .697-1.318 1.36-2.654 2-4 5.032-6.087 11.284-7.644 18.75-9.25l3.327-.756c11.495-2.515 23.133-4.18 34.923-3.994"/><path fill="#7a5113" d="M1185 845c50.617.704 50.617.704 62.672 10.336 1.58 1.98 2.735 3.97 3.89 6.226l1.254 2.38c5.538 14.308 5.818 33.885-.246 47.988-5.662 11.07-5.662 11.07-8.57 15.07h-2l-.707 1.727c-2.144 3.77-5.476 6.209-8.719 9.03a109 109 0 0 0-4.367 3.985c-11.796 11.243-30.366 12.636-45.852 12.473-18.489-1.184-37.022-9.727-49.382-23.469-5.098-6.161-8.708-12.461-11.973-19.746l-1.223-2.562c-2.863-6.404-3.599-12.462-3.777-19.438l-.191-3.832c.018-4.613 1.369-8.46 3.004-12.73l.79-2.17c1.908-5.177 3.928-10.33 6.397-15.268h2l1-3c2.006-.784 2.006-.784 4.629-1.352l2.889-.64 3.044-.633 2.963-.656c7.306-1.586 14.47-2.886 21.975-2.782l2.594.028L1169 846l-3 2c-7.005 5.209-7.005 5.209-13 11.5l-2 2.5h-2l-.84 2.219c-1.075 2.578-2.335 4.862-3.723 7.281-4.176 8.427-4.41 16.53-1.75 25.5 4.64 11.483 13.192 19.888 24.426 24.95 12.98 4.724 26.19 4.654 38.887-.95 9.076-4.635 14.684-11.843 18.938-21.023.64-2.038.893-3.843 1.062-5.977l.277-3.473c.349-8.483-.501-14.462-5.277-21.527l-1.129-1.836c-3.905-5.58-9.663-6.422-15.91-7.867-10.903-2.543-10.903-2.543-14.961-6.297a68 68 0 0 1-2.156-4.145l-1.057-2.186z"/><path fill="#875916" d="m471 814 3 1-1.355 1.984c-4.459 6.73-7.788 13.471-10.645 21.016h-1c.446-6.246 1.906-10.533 5-15.937l1.117-2.034c2.667-4.813 2.667-4.813 3.883-6.029"/><path fill="#996619" d="m471 814 3 1-5 7-1-4c1.438-2.25 1.438-2.25 3-4"/><path fill="#a36c1b" d="m1225 1716 3 1-1 2c-2.562.625-2.562.625-5 1v-2z"/><path fill="#6d4a15" d="M233 1222h1v5h-1z"/><path fill="#5f4012" d="m920 1750 3 1h-3z"/><path fill="#7b5214" d="m721 1717 4 1Z"/><path fill="#5f4011" d="m735 1542 4 1Z"/><path fill="#553a11" d="m770 1734 3 1Z"/><path fill="#7b5214" d="m1015 1682 3 1Z"/><path fill="#b0751d" d="m851 1397 3 1Z"/><path fill="#0b0d0b" d="m882 1766 2 1Z"/><path fill="#b0751d" d="m259 1364 2 1Z"/><path fill="#0a0a0a" d="m631 824 2 1Z"/><path fill="#5d3f12" d="m1088 804 2 1Z"/></svg>